<svg width="143" height="35" viewBox="0 0 143 35" fill="none" xmlns="http://www.w3.org/2000/svg">
<g clip-path="url(#clip0_2033:3082)">
<path d="M30.5075 18.5624C30.5181 21.0045 30.5241 23.4452 30.5451 25.8873C30.5481 26.2077 30.4174 26.3754 30.1501 26.5296C25.3221 29.3012 20.4971 32.0802 15.675 34.8623C15.4197 35.0105 15.205 35.0659 14.9182 34.8967C12.8127 33.6554 10.6953 32.4306 8.5824 31.2013C8.59441 30.8944 8.8482 30.8045 9.05844 30.6802C10.862 29.6111 12.7061 28.6094 14.5037 27.5299C14.7184 27.4011 14.9377 27.2783 15.2005 27.2843C18.0553 25.6567 20.9115 24.0306 23.7663 22.403C23.8339 22.3207 23.8789 22.2203 23.963 22.1485C25.7981 21.006 27.7098 19.9953 29.569 18.8933C29.8468 18.7286 30.1126 18.4351 30.5075 18.5624Z" fill="white"/>
<path d="M0.04347 16.4144C0.0314563 13.9753 0.0239476 11.5347 -7.99168e-05 9.09401C-0.00308336 8.7646 0.154597 8.61038 0.412894 8.46214C5.23793 5.69059 10.0615 2.91305 14.882 0.134012C15.1103 0.00224777 15.304 -0.0681266 15.5698 0.0890927C17.6962 1.34235 19.8302 2.58064 21.9626 3.82342C21.892 4.16332 21.5932 4.2831 21.3409 4.42236C19.6229 5.38064 17.932 6.38685 16.2245 7.3646C15.9437 7.52482 15.6569 7.67754 15.3295 7.72546C12.8231 9.14941 10.3153 10.5719 7.81038 12.0003C7.44546 12.2085 7.09856 12.448 6.74265 12.6741C5.72298 13.4767 4.54563 14.0217 3.43886 14.679C2.54083 15.2121 1.64881 15.7556 0.726754 16.2467C0.515011 16.3605 0.319787 16.5552 0.04347 16.4144Z" fill="white"/>
<path d="M0.0434965 16.4151C2.07383 15.2547 4.10566 14.0958 6.13448 12.9323C6.3282 12.8215 6.50541 12.6763 6.74418 12.6748C6.75169 15.6874 6.77271 18.6985 6.7562 21.7112C6.75319 22.2218 6.90487 22.5077 7.35839 22.7638C9.9834 24.2506 12.5889 25.7719 15.2019 27.2827C13.2031 28.4536 11.2043 29.6245 9.20851 30.7984C8.99526 30.9242 8.79253 31.0665 8.58379 31.1997C5.83414 29.6305 3.08749 28.0583 0.334831 26.4981C0.0795378 26.3529 -5.34314e-05 26.1717 0.00295001 25.8962C0.0179672 22.7368 0.029981 19.576 0.0434965 16.4151Z" fill="white"/>
<path d="M23.9165 22.2728C23.8669 22.3162 23.8159 22.3597 23.7663 22.4031C23.7498 20.8878 23.7498 20.8878 22.2466 20.8878C20.1487 20.8878 18.0507 20.8713 15.9528 20.8998C15.4152 20.9072 15.2095 20.7934 15.2215 20.2065C15.2605 18.4142 15.25 16.6204 15.226 14.8281C15.22 14.337 15.3176 14.1303 15.8748 14.1318C20.5706 14.1528 25.265 14.1498 29.9609 14.1348C30.4249 14.1333 30.5721 14.2681 30.5466 14.7263C30.5045 15.4959 30.5165 16.2685 30.506 17.0382C30.1051 17.6221 29.4443 17.8497 28.8722 18.1836C27.5161 18.9757 26.151 19.7543 24.786 20.5329C24.3249 20.7964 24.0426 21.0899 24.0922 21.6424C24.1117 21.8655 24.0862 22.0931 23.9165 22.2728Z" fill="white"/>
<path d="M15.3295 7.72579C17.1766 6.64323 19.0253 5.56066 20.8724 4.4766C21.2373 4.26248 21.5992 4.04088 21.9626 3.82227C24.7183 5.38997 27.471 6.96066 30.2296 8.52237C30.4519 8.64815 30.545 8.80087 30.542 9.05692C30.5315 10.0796 30.527 11.1023 30.5435 12.1234C30.5495 12.4723 30.4384 12.6041 30.0749 12.6026C28.0746 12.5906 26.0744 12.5966 24.0726 12.5966C23.8413 12.5966 23.6371 12.5322 23.4343 12.4154C20.7357 10.8507 18.0326 9.289 15.3295 7.72579Z" fill="white"/>
<path d="M23.8083 22.4035C23.8068 22.3525 23.8113 22.3001 23.8038 22.2507C23.6596 21.3269 23.933 20.7534 24.855 20.2847C26.7892 19.3025 28.6288 18.1331 30.5075 17.04C30.5075 17.5611 30.5075 18.0807 30.509 18.6017C28.4156 19.8206 26.3237 21.0394 24.2288 22.2537C24.1011 22.3256 23.948 22.354 23.8083 22.4035Z" fill="white"/>
<path d="M51.1607 20.8651C51.1607 21.8623 51.1427 22.8595 51.1682 23.8568C51.1787 24.2805 51.0406 24.4362 50.6126 24.4078C50.1395 24.3763 49.6635 24.4048 49.1875 24.3973C49.0238 24.3943 48.752 24.4527 48.7414 24.2431C48.6979 23.3941 48.2729 23.8927 47.9921 24.026C43.146 26.3453 37.7098 22.7308 37.9531 17.3464C38.1603 12.781 41.9567 9.74296 46.6601 10.3584C48.2369 10.565 49.656 11.0876 50.8739 12.1372C51.3184 12.519 51.4791 12.8364 50.8979 13.2078C50.8559 13.2347 50.8243 13.2752 50.7883 13.3096C50.3633 13.6959 49.9984 14.2379 49.4983 14.4266C48.9111 14.6482 48.5973 13.8965 48.1122 13.6435C46.3342 12.7137 43.9329 12.9398 42.5679 14.2319C41.2193 15.5092 40.8199 17.9438 41.6653 19.7181C42.6985 21.8878 45.9182 22.6769 47.8659 21.2514C48.1468 21.0463 48.2203 20.8112 48.2158 20.4893C48.2023 19.5924 48.2278 18.694 48.2038 17.7971C48.1933 17.3883 48.3029 17.1981 48.7459 17.2311C49.5148 17.2865 50.4909 16.9286 50.9985 17.3688C51.4881 17.7926 51.1142 18.7808 51.1547 19.519C51.1817 19.9667 51.1607 20.4159 51.1607 20.8651Z" fill="white"/>
<path d="M88.139 17.8152C89.4245 16.6069 90.7235 15.4105 91.9879 14.1812C92.3228 13.8563 92.6562 13.7275 93.1142 13.7425C94.0543 13.7725 94.9959 13.7515 96.0561 13.7515C95.517 14.5585 94.8442 15.0736 94.2781 15.68C93.5978 16.4107 92.8995 17.128 92.1696 17.8077C91.7942 18.1566 91.7927 18.3797 92.1171 18.778C93.5782 20.5793 95.0004 22.4105 96.5562 24.384C95.2392 24.384 94.0633 24.3945 92.889 24.375C92.6457 24.3705 92.5511 24.0995 92.4129 23.9288C91.5299 22.8447 90.6409 21.7652 89.7804 20.6646C89.5161 20.3262 89.3704 20.3322 89.0325 20.6092C88.2216 21.2726 87.8462 22.0317 87.9333 23.1158C88.0354 24.393 87.9573 24.399 86.6418 24.399C86.2423 24.399 85.8384 24.3705 85.4419 24.4065C84.9764 24.4469 84.8442 24.2747 84.8487 23.815C84.8713 21.7697 84.8577 19.7258 84.8577 17.6805C84.8577 15.2368 84.8698 12.7917 84.8472 10.3481C84.8427 9.86742 84.9629 9.67427 85.4704 9.70721C86.0937 9.74764 86.7229 9.75363 87.3446 9.70571C87.8762 9.66529 87.9663 9.89587 87.9633 10.3541C87.9468 12.5731 87.9558 14.7936 87.9558 17.0127C87.9558 17.2567 87.9558 17.4993 87.9558 17.7434C88.0174 17.7688 88.0774 17.7913 88.139 17.8152Z" fill="white"/>
<path d="M61.1576 24.552C58.8179 24.5056 56.7861 23.8003 55.6748 21.5858C54.6807 19.6078 54.8128 17.5894 56.1449 15.7926C57.546 13.903 59.5538 13.337 61.8064 13.6754C64.3623 14.0587 66.0457 15.8824 66.295 18.2887C66.3581 18.9056 66.1343 19.0433 65.6057 19.1391C63.4673 19.5239 61.3348 19.9417 59.2039 20.3654C58.9816 20.4089 58.6347 20.3355 58.5701 20.6275C58.5161 20.876 58.7684 21.0662 58.9396 21.2429C59.9232 22.2655 62.1397 22.3674 63.4567 21.3986C63.8442 21.1141 64.0679 21.0857 64.3503 21.4765C64.5245 21.7175 64.7542 21.9167 64.9585 22.1368C65.6778 22.9079 65.6808 22.9319 64.7858 23.5607C63.7 24.3244 62.4671 24.5714 61.1576 24.552ZM60.5659 15.9663C59.4336 15.9618 58.4185 16.8138 58.1872 18.1404C58.1151 18.5492 58.1662 18.7603 58.6602 18.657C60.0508 18.368 61.4414 18.082 62.8395 17.832C63.3021 17.7496 63.2901 17.561 63.1008 17.239C62.5872 16.3661 61.8169 15.9543 60.5659 15.9663Z" fill="white"/>
<path d="M75.6493 24.5423C74.2347 24.5783 72.9132 24.2548 71.7508 23.4358C69.8917 22.1241 69.1273 19.8108 69.7595 17.5169C70.3542 15.3607 72.314 13.7975 74.6536 13.6118C77.8959 13.3558 80.3301 15.1721 80.7701 18.1487C80.8572 18.7387 80.7656 19.0337 80.0824 19.1489C77.9394 19.5098 75.8085 19.9455 73.6775 20.3708C73.4583 20.4142 73.1054 20.3333 73.0468 20.6313C72.9988 20.8769 73.251 21.067 73.4237 21.2452C74.3923 22.2424 76.6119 22.3862 77.8778 21.4369C78.3914 21.0521 78.6317 21.1763 78.9411 21.5926C79.0897 21.7917 79.2759 21.9624 79.4456 22.1451C80.1529 22.9042 80.1529 22.9042 79.3345 23.5167C78.3959 24.2174 77.2276 24.5423 75.6493 24.5423ZM72.9687 18.6848C74.4809 18.3853 75.9977 18.1023 77.5039 17.7729C77.9274 17.6801 77.6436 17.3761 77.549 17.1919C77.0534 16.2247 75.7844 15.735 74.5726 16.024C73.5244 16.2741 72.7014 17.2863 72.6594 18.3374C72.6489 18.5949 72.6819 18.7267 72.9687 18.6848Z" fill="white"/>
<path d="M127.272 24.5408C124.206 24.5378 122.06 23.1528 121.311 20.7645C120.369 17.7654 121.98 14.7228 124.984 13.8334C128.125 12.9021 131.309 14.4758 132.097 17.3506C132.533 18.9378 132.518 18.9573 130.91 19.2657C128.971 19.6371 127.031 20.0054 125.093 20.3857C124.422 20.5175 124.391 20.6373 124.843 21.1643C125.747 22.22 128.023 22.4146 129.349 21.4578C129.872 21.0805 130.15 21.1449 130.47 21.6165C130.567 21.7588 130.701 21.8771 130.819 22.0058C131.669 22.9252 131.666 23.015 130.599 23.6858C129.549 24.3447 128.385 24.5857 127.272 24.5408ZM124.581 18.6608C125.864 18.4108 127.25 18.1143 128.646 17.8777C129.307 17.7654 129.259 17.4899 128.977 17.0452C128.418 16.1663 127.127 15.7275 125.988 16.045C124.999 16.322 124.176 17.3641 124.14 18.3494C124.131 18.6189 124.21 18.7192 124.581 18.6608Z" fill="white"/>
<path d="M103.18 24.5393C101.697 24.5737 100.342 24.2713 99.0387 23.7128C98.6557 23.5481 98.4785 23.3624 98.7188 22.9297C98.9981 22.4296 99.0897 21.7288 99.4952 21.4234C99.9592 21.0745 100.491 21.7079 101.015 21.8486C102.018 22.1166 103.023 22.2738 104.053 22.1346C104.572 22.0642 105.158 21.9744 105.17 21.2706C105.182 20.6223 104.615 20.5729 104.166 20.477C103.165 20.2614 102.149 20.1177 101.153 19.8826C99.6889 19.5367 98.9561 18.7401 98.8014 17.43C98.6422 16.0884 99.2279 14.9205 100.504 14.3006C102.794 13.1911 105.109 13.4351 107.412 14.3051C107.746 14.4308 107.827 14.6315 107.653 14.9369C107.64 14.9579 107.63 14.9819 107.619 15.0043C107.37 15.5194 107.241 16.1872 106.837 16.5091C106.39 16.8655 105.865 16.2411 105.344 16.1408C104.451 15.9701 103.565 15.8638 102.67 16.0719C102.215 16.1782 101.782 16.3819 101.781 16.9344C101.779 17.4749 102.221 17.6142 102.647 17.707C103.721 17.9391 104.807 18.1173 105.871 18.3838C107.277 18.7372 108.058 19.5742 108.162 20.7271C108.291 22.181 107.699 23.2516 106.399 23.8969C105.364 24.4105 104.262 24.5767 103.18 24.5393Z" fill="white"/>
<path d="M111.976 16.6143C111.976 15.069 111.988 13.5238 111.968 11.98C111.962 11.5338 112.092 11.3512 112.563 11.3751C113.236 11.4096 113.913 11.4021 114.586 11.3781C114.984 11.3646 115.115 11.5189 115.098 11.9007C115.075 12.3978 115.122 12.8994 115.084 13.395C115.045 13.9056 115.262 14.0478 115.738 14.0164C116.235 13.985 116.738 14.0269 117.236 14.0044C117.631 13.9865 117.735 14.1467 117.753 14.527C117.837 16.3957 117.848 16.4331 115.973 16.3807C115.235 16.3597 115.035 16.5813 115.078 17.2955C115.142 18.3377 115.084 19.3873 115.098 20.4339C115.116 21.8549 115.862 22.4164 117.187 21.9223C117.673 21.7411 117.795 21.8759 117.911 22.2727C117.987 22.5347 118.1 22.7862 118.196 23.0423C118.55 23.9811 118.523 24.053 117.571 24.336C116.618 24.619 115.643 24.6339 114.681 24.4213C113.086 24.068 112.132 23.0213 112.057 21.3952C111.982 19.8051 112.04 18.2089 112.04 16.6143C112.015 16.6143 111.995 16.6143 111.976 16.6143Z" fill="white"/>
<path d="M139.4 14.9748C140.288 14.0734 141.276 13.717 142.378 13.6032C142.818 13.5583 143.027 13.6616 142.999 14.1528C142.962 14.7502 142.97 15.3506 142.997 15.9481C143.015 16.3553 142.851 16.4317 142.47 16.4392C140.334 16.4856 139.483 17.36 139.471 19.4817C139.463 20.7799 139.472 22.0766 139.468 23.3748C139.463 24.6011 139.528 24.3765 138.408 24.3945C137.882 24.4035 137.357 24.381 136.831 24.4005C136.472 24.4139 136.353 24.2732 136.355 23.9213C136.362 20.7021 136.364 17.4828 136.353 14.2636C136.352 13.8818 136.468 13.723 136.867 13.741C137.417 13.7665 137.972 13.7934 138.517 13.735C139.187 13.6631 139.448 13.9012 139.343 14.5615C139.327 14.6544 139.366 14.7547 139.4 14.9748Z" fill="white"/>
</g>
<defs>
<clipPath id="clip0_2033:3082">
<rect width="143" height="35" fill="white"/>
</clipPath>
</defs>
</svg>
