<svg width="18" height="18" viewBox="0 0 18 18" fill="none" xmlns="http://www.w3.org/2000/svg">
<path fill-rule="evenodd" clip-rule="evenodd" d="M9 0C4.02944 0 0 4.02944 0 9C0 13.9706 4.02944 18 9 18C13.9706 18 18 13.9706 18 9C18 4.02944 13.9706 0 9 0ZM7.02123 4.229C7.53323 4.2057 7.69684 4.2 9.00045 4.2H8.99895C10.303 4.2 10.466 4.2057 10.978 4.229C11.489 4.2524 11.838 4.3333 12.144 4.452C12.46 4.5745 12.727 4.73851 12.994 5.00551C13.261 5.27231 13.425 5.54011 13.548 5.85582C13.666 6.16102 13.747 6.50982 13.771 7.02083C13.794 7.53283 13.8 7.69644 13.8 9.00005C13.8 10.3037 13.794 10.4669 13.771 10.9789C13.747 11.4897 13.666 11.8386 13.548 12.1439C13.425 12.4595 13.261 12.7273 12.994 12.9941C12.7273 13.2611 12.4599 13.4255 12.1443 13.5481C11.8389 13.6668 11.4897 13.7477 10.9787 13.7711C10.4667 13.7944 10.3036 13.8001 8.99985 13.8001C7.69634 13.8001 7.53283 13.7944 7.02083 13.7711C6.50992 13.7477 6.16102 13.6668 5.85562 13.5481C5.54011 13.4255 5.27231 13.2611 5.00561 12.9941C4.73871 12.7273 4.5747 12.4595 4.452 12.1438C4.3334 11.8386 4.2525 11.4898 4.229 10.9788C4.2058 10.4668 4.2 10.3037 4.2 9.00005C4.2 7.69644 4.206 7.53273 4.2289 7.02073C4.2519 6.50992 4.3329 6.16102 4.4519 5.85572C4.5749 5.54011 4.73891 5.27231 5.00591 5.00551C5.27271 4.73861 5.54051 4.5746 5.85622 4.452C6.16142 4.3333 6.51022 4.2524 7.02123 4.229Z" fill="white"/>
<path fill-rule="evenodd" clip-rule="evenodd" d="M8.56987 5.06468C8.65348 5.06455 8.74342 5.06459 8.84049 5.06463L9.00047 5.06468C10.2821 5.06468 10.434 5.06928 10.9401 5.09228C11.4081 5.11368 11.6621 5.19188 11.8313 5.25758C12.0553 5.34458 12.215 5.44858 12.3829 5.61658C12.5509 5.78458 12.6549 5.94459 12.7421 6.16859C12.8078 6.33759 12.8861 6.59159 12.9074 7.0596C12.9304 7.5656 12.9354 7.7176 12.9354 8.99862C12.9354 10.2796 12.9304 10.4316 12.9074 10.9376C12.886 11.4056 12.8078 11.6596 12.7421 11.8286C12.6551 12.0526 12.5509 12.2122 12.3829 12.3801C12.2149 12.5481 12.0554 12.6521 11.8313 12.7391C11.6623 12.8051 11.4081 12.8831 10.9401 12.9045C10.4341 12.9275 10.2821 12.9325 9.00047 12.9325C7.71876 12.9325 7.56686 12.9275 7.06085 12.9045C6.59285 12.8829 6.33884 12.8047 6.16954 12.739C5.94554 12.652 5.78554 12.548 5.61754 12.38C5.44953 12.212 5.34553 12.0524 5.25833 11.8282C5.19263 11.6592 5.11433 11.4052 5.09303 10.9372C5.07003 10.4312 5.06543 10.2792 5.06543 8.99742C5.06543 7.7156 5.07003 7.5644 5.09303 7.0584C5.11443 6.59039 5.19263 6.33639 5.25833 6.16719C5.34533 5.94319 5.44953 5.78318 5.61754 5.61518C5.78554 5.44718 5.94554 5.34318 6.16954 5.25598C6.33874 5.18998 6.59285 5.11198 7.06085 5.09048C7.50366 5.07048 7.67526 5.06448 8.56987 5.06348V5.06468ZM11.5627 5.86162C11.2447 5.86162 10.9867 6.11932 10.9867 6.43743C10.9867 6.75543 11.2447 7.01343 11.5627 7.01343C11.8807 7.01343 12.1387 6.75543 12.1387 6.43743C12.1387 6.11942 11.8807 5.86142 11.5627 5.86142V5.86162ZM6.53552 8.99984C6.53552 7.63856 7.63918 6.53487 9.00045 6.53481C10.3618 6.53481 11.4652 7.63852 11.4652 8.99984C11.4652 10.3612 10.3619 11.4644 9.00055 11.4644C7.63923 11.4644 6.53552 10.3612 6.53552 8.99984Z" fill="white"/>
<path d="M9.00053 7.40039C9.88414 7.40039 10.6005 8.1167 10.6005 9.00041C10.6005 9.88402 9.88414 10.6004 9.00053 10.6004C8.11682 10.6004 7.40051 9.88402 7.40051 9.00041C7.40051 8.1167 8.11682 7.40039 9.00053 7.40039Z" fill="white"/>
</svg>
