<svg width="18" height="18" viewBox="0 0 18 18" fill="none" xmlns="http://www.w3.org/2000/svg">
<path d="M9.00012 17.303C13.5857 17.303 17.303 13.5857 17.303 9.00012C17.303 4.41458 13.5857 0.697266 9.00012 0.697266C4.41458 0.697266 0.697266 4.41458 0.697266 9.00012C0.697266 13.5857 4.41458 17.303 9.00012 17.303Z" fill="#29B475"/>
<path d="M9 18C4.0378 18 0 13.9629 0 9C0 4.0378 4.0378 0 9 0C13.9629 0 18 4.0378 18 9C18 13.9629 13.9629 18 9 18ZM9 1.39426C4.80604 1.39426 1.39426 4.80604 1.39426 9C1.39426 13.194 4.80604 16.6057 9 16.6057C13.194 16.6057 16.6057 13.1933 16.6057 9C16.6057 4.80604 13.194 1.39426 9 1.39426Z" fill="#29B475"/>
<path d="M7.91209 12.3117C7.72526 12.3117 7.54678 12.2371 7.41501 12.1033L4.84259 9.489C4.5728 9.21433 4.57628 8.77375 4.85096 8.50326C5.12564 8.23417 5.56692 8.23695 5.83671 8.51162L7.89187 10.6002L12.1437 5.91758C12.4037 5.63247 12.8443 5.61225 13.128 5.87019C13.4132 6.12884 13.4341 6.56942 13.1754 6.85524L8.42797 12.0837C8.29902 12.2259 8.11775 12.3082 7.92604 12.3124C7.92116 12.3117 7.91697 12.3117 7.91209 12.3117Z" fill="white"/>
</svg>
