<svg width="18" height="18" viewBox="0 0 18 18" fill="none" xmlns="http://www.w3.org/2000/svg">
<path fill-rule="evenodd" clip-rule="evenodd" d="M9 0C4.02944 0 0 4.02944 0 9C0 13.9706 4.02944 18 9 18C13.9706 18 18 13.9706 18 9C18 4.02944 13.9706 0 9 0ZM4.32057 7.45426H6.36016V13.5824H4.32057V7.45426ZM6.49454 5.55851C6.4813 4.95765 6.05162 4.5 5.35389 4.5C4.65615 4.5 4.2 4.95765 4.2 5.55851C4.2 6.14693 4.64267 6.61776 5.32741 6.61776H5.34045C6.05162 6.61776 6.49454 6.14693 6.49454 5.55851ZM11.3674 7.31028C12.7095 7.31028 13.7157 8.18633 13.7157 10.0686L13.7156 13.5823H11.6761V10.3038C11.6761 9.48026 11.381 8.91832 10.6426 8.91832C10.0791 8.91832 9.74352 9.29715 9.59611 9.66304C9.54218 9.79417 9.52895 9.97687 9.52895 10.16V13.5825H7.48911C7.48911 13.5825 7.51599 8.02937 7.48911 7.45434H9.52895V8.32234C9.79965 7.90508 10.2845 7.31028 11.3674 7.31028Z" fill="white"/>
</svg>
