<svg width="18" height="18" viewBox="0 0 18 18" fill="none" xmlns="http://www.w3.org/2000/svg">
<path fill-rule="evenodd" clip-rule="evenodd" d="M9 0C4.02944 0 0 4.02944 0 9C0 13.9706 4.02944 18 9 18C13.9706 18 18 13.9706 18 9C18 4.02944 13.9706 0 9 0ZM12.7506 5.90588C13.1637 6.01923 13.489 6.35321 13.5994 6.77734C13.8 7.54602 13.8 9.14988 13.8 9.14988C13.8 9.14988 13.8 10.7537 13.5994 11.5224C13.489 11.9465 13.1637 12.2805 12.7506 12.3939C12.002 12.5999 9.00003 12.5999 9.00003 12.5999C9.00003 12.5999 5.99801 12.5999 5.24938 12.3939C4.8363 12.2805 4.51099 11.9465 4.40059 11.5224C4.20003 10.7537 4.20003 9.14988 4.20003 9.14988C4.20003 9.14988 4.20003 7.54602 4.40059 6.77734C4.51099 6.35321 4.8363 6.01923 5.24938 5.90588C5.99801 5.69988 9.00003 5.69988 9.00003 5.69988C9.00003 5.69988 12.002 5.69988 12.7506 5.90588Z" fill="white"/>
<path d="M8.09998 10.7998V7.7998L10.5 9.29986L8.09998 10.7998Z" fill="white"/>
</svg>
